<svg version="1.1" id="Layer_1" xmlns="http://www.w3.org/2000/svg" xmlns:xlink="http://www.w3.org/1999/xlink" x="0px" y="0px"
	 width="100%" viewBox="0 0 1080 1080" enable-background="new 0 0 1080 1080" xml:space="preserve">
<path fill="#000000" opacity="1.000000" stroke="none" 
	d="
M741.000000,1081.000000 
	C494.028442,1081.000000 247.556885,1081.000000 1.042667,1081.000000 
	C1.042667,721.070007 1.042667,361.139984 1.042667,1.104980 
	C360.888428,1.104980 720.776917,1.104980 1080.832764,1.104980 
	C1080.832764,360.999939 1080.832764,720.999939 1080.832764,1081.000000 
	C967.806152,1081.000000 854.653076,1081.000000 741.000000,1081.000000 
M477.699341,561.694702 
	C477.827728,561.819885 477.956146,561.945007 478.016846,562.972473 
	C477.681946,567.581055 476.920898,572.206726 477.105530,576.794373 
	C477.436401,585.016479 478.473450,593.207397 478.966888,601.426270 
	C479.749603,614.463684 480.412201,627.509705 480.971985,640.558716 
	C481.724487,658.099487 482.319366,675.647034 483.015137,693.190308 
	C483.098785,695.299500 483.389343,697.400513 483.597656,699.653259 
	C483.092133,699.746704 482.451447,699.968018 481.810486,699.968689 
	C460.477539,699.991150 439.142548,700.131226 417.813965,699.825806 
	C415.071838,699.786560 411.756592,698.032227 409.731659,696.033875 
	C386.956085,673.557617 364.341309,650.917664 341.792877,628.212830 
	C338.158875,624.553589 334.053467,622.963074 329.002441,622.973755 
	C302.669617,623.029663 276.335205,622.854370 250.004593,623.103516 
	C243.531433,623.164673 237.754288,623.147156 235.215103,615.789795 
	C235.018890,615.221191 234.335022,614.806091 233.844376,614.356079 
	C225.488739,606.692688 212.159302,605.739990 201.788696,612.058289 
	C194.145523,616.714905 189.811081,630.153259 192.383621,639.915100 
	C197.259644,658.417786 222.524612,664.256592 233.833481,650.174927 
	C239.251434,643.428589 244.995453,642.341919 252.355911,642.979919 
	C253.844696,643.109009 255.354248,642.998596 256.854218,642.998596 
	C278.020599,642.998413 299.193604,643.290710 320.348999,642.808472 
	C326.203033,642.675049 330.059845,644.325745 334.053986,648.385559 
	C355.560028,670.245178 377.385162,691.790588 398.971313,713.572083 
	C402.732666,717.367493 406.930023,719.052917 412.178101,719.033630 
	C433.844147,718.953918 455.510712,718.995117 477.177063,719.009827 
	C478.886749,719.010986 480.596344,719.149597 482.556976,719.235291 
	C479.934357,723.762207 476.817078,725.174255 471.912415,725.149048 
	C423.747681,724.902100 375.581024,724.941650 327.415558,725.099243 
	C323.074677,725.113403 318.344788,725.686340 314.500061,727.496277 
	C309.752686,729.731262 306.883850,728.485413 303.643616,725.203857 
	C291.231293,712.633423 278.670837,700.209351 266.212982,687.683594 
	C263.018494,684.471680 259.410797,682.913574 254.754501,682.935486 
	C227.088837,683.066101 199.421967,683.049438 171.756592,682.890686 
	C169.875626,682.879944 167.115784,681.822327 166.269623,680.372986 
	C160.147217,669.885681 151.708450,665.804016 139.484192,667.976746 
	C127.960121,670.025024 120.038490,678.075684 119.127357,689.902710 
	C118.314789,700.450256 123.440392,711.469055 134.112335,715.357483 
	C146.086594,719.720581 157.058395,717.467651 164.995682,705.971436 
	C166.455002,703.857788 167.507477,701.873901 170.890732,701.898315 
	C196.722351,702.085083 222.556137,701.959473 248.388519,702.082336 
	C250.374802,702.091797 252.925568,702.676880 254.250320,703.976624 
	C266.958069,716.444519 279.458435,729.123840 291.679443,741.402222 
	C288.985840,750.628113 282.848419,753.544067 274.045441,752.057617 
	C271.776825,751.674500 269.353668,751.745422 267.063446,752.059509 
	C263.620941,752.531555 261.764160,750.951294 259.987793,748.219788 
	C253.745407,738.620850 242.488861,734.676880 231.964462,737.444397 
	C219.470108,740.730042 208.534424,758.447571 216.974411,773.203857 
	C225.609055,788.300537 246.836761,793.246643 258.637817,777.001343 
	C260.069122,775.030945 262.163788,772.517151 264.224274,772.232483 
	C269.244781,771.538757 274.425812,772.006470 280.210052,772.006470 
	C278.838165,783.826294 280.962189,794.440979 287.845428,804.896179 
	C284.600464,807.748352 281.348541,810.357239 278.397705,813.270996 
	C275.465546,816.166199 272.785065,819.323975 270.090393,822.449524 
	C268.022125,824.848328 265.882996,825.384033 262.669830,824.434570 
	C255.699249,822.374878 241.863510,827.468506 238.344803,833.397583 
	C232.989594,842.421082 231.710205,851.919739 236.927032,861.507568 
	C241.900406,870.648071 249.818848,874.586975 260.136261,874.009216 
	C273.404602,873.266113 286.453705,861.624084 283.180695,845.008972 
	C282.670288,842.417908 282.418671,838.683594 283.844452,836.997681 
	C289.205322,830.658447 295.309814,824.948181 301.221680,818.914551 
	C311.262695,826.640747 322.695160,828.917664 334.419373,828.896545 
	C384.358093,828.806519 434.295929,828.297119 484.234528,828.018005 
	C503.900299,827.908081 523.567383,828.041138 543.233398,827.955383 
	C546.161987,827.942627 549.147583,827.598694 552.005737,826.957520 
	C573.709595,822.088684 591.615417,801.244812 590.979919,778.152771 
	C590.775146,770.710327 590.360657,763.273193 589.996948,755.835876 
	C589.350769,742.623718 588.657410,729.413940 588.007263,716.202026 
	C587.324402,702.325073 586.631409,688.448364 586.013245,674.568420 
	C585.484741,662.701965 585.055847,650.831055 584.550415,638.147156 
	C590.924622,649.827698 596.993286,660.854370 602.972351,671.929443 
	C610.055725,685.050171 616.990601,698.251282 624.117554,711.348083 
	C635.864746,732.935486 647.662781,754.495728 659.580078,775.989441 
	C661.250977,779.003113 660.835571,780.863281 658.449463,783.238708 
	C651.878357,789.780701 645.692688,796.708618 639.162292,803.293213 
	C623.671570,818.912537 608.098022,834.450317 592.454163,849.916077 
	C591.317993,851.039246 589.348022,851.893799 587.761414,851.900879 
	C560.262329,852.023865 532.762512,852.023010 505.263428,851.907898 
	C503.974854,851.902527 502.245361,850.898560 501.479706,849.820740 
	C497.053558,843.590332 491.879578,839.016968 483.810059,837.798828 
	C462.947906,834.649475 450.271606,849.828613 454.491577,869.874023 
	C456.647614,880.115417 463.768982,886.241516 473.780609,887.788086 
	C484.425354,889.432373 494.294006,887.001770 500.348450,876.947510 
	C502.297302,873.711060 504.500031,872.927368 507.960419,872.940735 
	C535.792908,873.048340 563.626221,872.947815 591.458801,873.046387 
	C597.077576,873.066284 601.526306,871.313110 605.450745,867.153748 
	C616.217285,855.742554 627.190674,844.524048 638.195557,833.340942 
	C648.715881,822.650146 659.372131,812.092957 669.995728,801.504150 
	C670.640381,800.861633 671.523499,800.458374 672.325378,799.924011 
	C680.887390,815.638367 689.293945,831.067444 697.430237,846.000427 
	C689.333008,846.000427 681.580261,845.865173 673.834351,846.037781 
	C665.774353,846.217468 658.415100,847.708862 652.708496,854.588379 
	C646.578613,861.978088 639.687073,868.760925 632.818481,875.493042 
	C631.348999,876.933472 628.364380,877.956543 626.395142,877.566956 
	C616.930176,875.694763 608.814697,878.765869 602.632446,885.204285 
	C596.325317,891.772644 595.467773,900.582153 597.793030,909.290222 
	C602.104187,925.436401 619.304871,931.507568 634.112427,923.917053 
	C642.403381,919.667053 649.176025,907.831055 646.700928,900.178711 
	C644.506897,893.395447 645.993652,888.935669 651.395508,885.067078 
	C652.197632,884.492676 652.818665,883.666992 653.530884,882.965088 
	C659.221008,877.358704 664.016418,869.582886 670.855957,866.759216 
	C677.705627,863.931335 686.651611,866.615723 694.579895,865.854431 
	C704.133301,864.937073 711.537781,866.481018 714.074036,877.146912 
	C714.213989,877.735596 714.904419,878.170959 715.212341,878.745422 
	C719.214600,886.213318 723.193970,893.693542 727.470459,901.717407 
	C721.927551,902.008728 717.816956,903.093750 714.352783,897.273132 
	C708.919250,888.143677 696.764771,884.598633 686.860718,887.606567 
	C676.414246,890.779175 670.916382,898.490356 669.179321,908.605225 
	C667.439880,918.733765 672.299622,927.027039 680.309692,932.460510 
	C691.822510,940.270142 703.488220,939.039429 711.413513,929.401672 
	C716.624939,923.064087 721.593018,921.123901 728.849060,921.979675 
	C729.999634,922.115417 731.220337,922.194702 732.339844,921.964966 
	C737.501465,920.906067 739.805725,923.742920 742.109253,927.896851 
	C746.062500,935.025879 749.999207,942.398315 755.282166,948.511047 
	C770.381470,965.981812 801.352844,967.725769 819.462524,956.777649 
	C839.567871,944.623169 848.173218,923.158264 842.679077,900.774475 
	C840.004883,889.879456 834.065857,879.641052 828.721436,869.574463 
	C814.738586,843.236694 800.241638,817.172180 786.005981,790.968140 
	C778.887756,777.865234 771.949768,764.664368 764.829956,751.562256 
	C750.590881,725.359558 736.256287,699.208679 722.014160,673.007629 
	C714.813599,659.760803 707.768738,646.429443 700.581787,633.175232 
	C690.428101,614.449829 680.175659,595.777771 670.092468,577.014648 
	C669.447571,575.814697 669.370239,573.799316 669.915283,572.550049 
	C674.889832,561.148743 680.070129,549.837402 685.172363,538.491638 
	C690.875854,525.808899 696.500305,513.090149 702.270874,500.438019 
	C707.888306,488.121704 713.647034,475.869812 719.447144,463.366791 
	C729.399475,476.704590 739.323547,489.739075 748.950623,502.989380 
	C756.848755,513.859985 766.011353,522.918579 779.559753,526.151123 
	C783.508423,527.093201 787.599121,527.831970 791.640625,527.917603 
	C802.852966,528.155212 814.073608,528.000000 826.236328,528.000000 
	C824.550354,529.815430 823.663757,530.763062 822.784790,531.717834 
	C820.057800,534.680115 817.169128,537.344482 812.700623,536.875854 
	C810.268188,536.620728 807.844421,536.052429 805.414734,536.040710 
	C789.581970,535.964111 773.748535,535.963806 757.915710,536.035095 
	C754.973572,536.048401 753.010254,535.524353 750.972046,532.752258 
	C743.042236,521.966919 733.514465,518.537292 723.380310,522.018494 
	C713.483948,525.418030 705.284424,535.381775 705.001343,544.351929 
	C704.657471,555.251892 710.662842,566.101318 720.035095,569.368896 
	C732.347717,573.661682 742.945618,571.311584 750.901123,559.970276 
	C752.890930,557.133606 754.790466,555.883423 758.333557,555.913696 
	C778.998413,556.089966 799.666382,556.087097 820.330872,555.889526 
	C822.915039,555.864807 826.108704,555.032593 827.953369,553.382263 
	C835.988525,546.193665 843.513428,538.436707 851.499695,531.190369 
	C853.348877,529.512512 856.269592,528.180298 858.721985,528.138428 
	C874.550476,527.868164 890.396545,527.634827 906.216003,528.100220 
	C922.816162,528.588684 936.520996,523.134277 947.724060,510.841370 
	C959.783020,497.609192 962.082031,481.727570 959.335815,465.133728 
	C957.513977,454.124695 951.598206,444.640717 942.789612,437.238159 
	C933.970825,429.827026 924.097656,425.081299 912.444519,425.036926 
	C883.112000,424.925262 853.778809,424.987823 824.445862,425.020782 
	C821.883606,425.023651 820.144104,424.665222 818.348694,422.121796 
	C811.358215,412.218964 803.835632,402.691986 796.520386,393.018127 
	C783.279419,375.507904 770.078003,357.967560 756.793030,340.490784 
	C750.835999,332.654053 745.046143,324.654755 738.603210,317.230133 
	C725.141602,301.717285 706.911926,296.271088 687.380066,296.161102 
	C615.383423,295.755554 543.382446,296.157532 471.384399,295.899567 
	C451.007202,295.826569 436.295990,305.189606 426.202545,321.774109 
	C409.023773,350.000519 392.649414,378.716553 375.945190,407.231628 
	C374.466614,409.755646 372.795685,411.274445 369.377777,411.112915 
	C361.728302,410.751373 354.040802,410.778625 346.387512,411.097412 
	C342.798981,411.246918 340.820068,410.010345 338.928589,407.063873 
	C332.983978,397.803894 321.397736,393.316040 311.255890,396.360077 
	C300.757751,399.511017 294.850739,407.214996 293.174255,417.620972 
	C291.510315,427.948761 296.513214,436.165436 304.734192,441.754028 
	C315.694183,449.204529 329.445648,447.426880 337.747101,435.869354 
	C339.094025,433.994110 341.019379,431.429688 342.887756,431.238464 
	C348.755768,430.637756 354.724091,431.017395 361.453094,431.017395 
	C354.627106,443.858124 345.532166,454.730316 343.639771,469.000031 
	C341.375641,469.000031 339.551819,469.024536 337.728790,468.996246 
	C316.623199,468.668762 295.517914,468.318329 274.412109,468.006866 
	C265.182800,467.870667 257.023560,469.795959 250.702759,477.594940 
	C245.080399,484.532074 238.422943,490.623596 232.344711,497.201447 
	C230.091721,499.639618 228.006805,500.282562 224.529266,499.427948 
	C216.497284,497.454132 205.035522,501.769135 200.639328,508.175964 
	C194.462769,517.177246 193.584427,527.380981 199.142410,537.094299 
	C204.477188,546.417542 213.193771,550.304626 223.770096,548.914307 
	C235.958191,547.312012 248.417435,537.039978 245.012177,519.895508 
	C244.116608,515.386597 244.717865,512.079651 248.481720,508.790558 
	C254.867615,503.210083 260.478363,496.750946 266.715668,490.986633 
	C268.434387,489.398346 271.203827,488.176605 273.518036,488.130280 
	C286.845856,487.863434 300.181732,488.000061 313.514893,488.000000 
	C323.829987,487.999939 334.145111,488.000000 344.437347,488.000000 
	C347.802094,501.665375 355.311188,512.136353 366.492828,519.942749 
	C377.634735,527.721436 390.416901,529.488342 403.367950,527.772766 
	C416.200653,526.072998 427.715149,520.482666 435.130920,509.340332 
	C443.643433,496.550079 451.433807,483.274261 459.391083,470.120575 
	C470.653961,451.502686 481.115326,432.357483 493.193817,414.289703 
	C501.797668,401.419495 513.850281,399.217102 526.160950,408.706940 
	C531.031921,412.461792 532.788025,419.343323 530.559448,424.951447 
	C528.932678,429.045258 527.537842,433.231964 525.884766,437.314545 
	C519.262451,453.669586 512.541565,469.984802 505.954712,486.354004 
	C504.774750,489.286316 502.910309,490.125458 499.846252,490.068817 
	C490.016418,489.886993 480.180969,489.971283 470.347961,490.013794 
	C465.061676,490.036652 460.606262,491.647003 456.714935,495.651062 
	C444.403931,508.318726 431.748596,520.651062 419.343018,533.228088 
	C416.712860,535.894592 413.931396,537.084778 410.142303,537.065613 
	C384.976624,536.938354 359.809448,536.918823 334.644470,537.103088 
	C331.543610,537.125732 329.784515,536.023621 328.284393,533.702576 
	C323.170990,525.790894 316.279541,521.989807 306.479523,521.766602 
	C296.183502,521.532043 286.020111,529.407959 283.196808,539.594055 
	C280.094299,550.787292 284.003357,561.818848 293.127197,567.578247 
	C305.914032,575.649902 322.940887,571.961182 329.385590,558.400452 
	C330.010040,557.086609 332.742889,556.109009 334.502747,556.099976 
	C362.168304,555.957642 389.835114,555.929443 417.500732,556.066833 
	C422.330231,556.090759 426.065033,554.492859 429.388580,551.143738 
	C441.832397,538.604248 454.326324,526.113953 466.881866,513.686523 
	C468.359833,512.223633 470.287140,510.326233 472.088562,510.233521 
	C479.620483,509.846069 487.183868,510.070221 494.803711,510.070221 
	C491.556427,518.780457 488.583679,526.884949 485.498260,534.946350 
	C484.632538,537.208374 483.809998,539.439209 480.384521,539.071350 
	C473.979706,538.383667 468.996857,541.526978 464.655853,545.856995 
	C454.390167,556.096924 444.073975,566.288147 433.942657,576.659668 
	C430.960205,579.712891 427.824921,581.096130 423.468597,581.082092 
	C380.969666,580.945374 338.469788,580.931763 295.971130,581.108398 
	C291.864136,581.125427 289.331238,580.081787 287.106049,576.591187 
	C280.794586,566.690430 267.527130,563.150085 256.643585,567.735535 
	C243.468674,573.286316 240.117859,585.969116 242.439728,596.581421 
	C244.997803,608.273438 253.465652,614.878723 265.160980,615.731384 
	C274.555450,616.416260 283.114868,613.216431 287.876343,604.125854 
	C289.694550,600.654419 292.033142,599.909180 295.696869,599.919434 
	C340.029236,600.043701 384.363129,599.845276 428.693756,600.148071 
	C436.332489,600.200256 442.053497,597.626221 447.101562,592.411621 
	C457.153473,582.028137 467.242218,571.680237 477.699341,561.694702 
M646.463013,165.041153 
	C638.277588,181.881439 635.220093,199.448715 637.901611,218.141632 
	C640.508850,236.315933 648.199829,251.982346 660.718994,265.020172 
	C674.012146,278.864166 690.257874,287.491150 709.626587,290.140839 
	C727.909302,292.641907 745.479492,290.811707 761.915283,282.409271 
	C779.864136,273.233337 793.359863,259.499695 801.627991,240.854553 
	C809.271606,223.617569 810.918945,205.892761 807.234253,187.422989 
	C803.449768,168.452896 794.063538,152.889679 779.685974,140.252548 
	C770.607483,132.272964 760.052734,126.906403 748.627197,122.873238 
	C737.139404,118.818100 725.395508,119.919052 713.748901,120.199699 
	C707.338989,120.354156 700.732056,121.829643 694.639771,123.939308 
	C673.588745,131.228989 657.814087,145.033920 646.463013,165.041153 
z"/>
<path fill="#20D54D" opacity="1.000000" stroke="none" 
	d="
M477.315735,561.317627 
	C467.242218,571.680237 457.153473,582.028137 447.101562,592.411621 
	C442.053497,597.626221 436.332489,600.200256 428.693756,600.148071 
	C384.363129,599.845276 340.029236,600.043701 295.696869,599.919434 
	C292.033142,599.909180 289.694550,600.654419 287.876343,604.125854 
	C283.114868,613.216431 274.555450,616.416260 265.160980,615.731384 
	C253.465652,614.878723 244.997803,608.273438 242.439728,596.581421 
	C240.117859,585.969116 243.468674,573.286316 256.643585,567.735535 
	C267.527130,563.150085 280.794586,566.690430 287.106049,576.591187 
	C289.331238,580.081787 291.864136,581.125427 295.971130,581.108398 
	C338.469788,580.931763 380.969666,580.945374 423.468597,581.082092 
	C427.824921,581.096130 430.960205,579.712891 433.942657,576.659668 
	C444.073975,566.288147 454.390167,556.096924 464.655853,545.856995 
	C468.996857,541.526978 473.979706,538.383667 480.384521,539.071350 
	C483.809998,539.439209 484.632538,537.208374 485.498260,534.946350 
	C488.583679,526.884949 491.556427,518.780457 494.803711,510.070221 
	C487.183868,510.070221 479.620483,509.846069 472.088562,510.233521 
	C470.287140,510.326233 468.359833,512.223633 466.881866,513.686523 
	C454.326324,526.113953 441.832397,538.604248 429.388580,551.143738 
	C426.065033,554.492859 422.330231,556.090759 417.500732,556.066833 
	C389.835114,555.929443 362.168304,555.957642 334.502747,556.099976 
	C332.742889,556.109009 330.010040,557.086609 329.385590,558.400452 
	C322.940887,571.961182 305.914032,575.649902 293.127197,567.578247 
	C284.003357,561.818848 280.094299,550.787292 283.196808,539.594055 
	C286.020111,529.407959 296.183502,521.532043 306.479523,521.766602 
	C316.279541,521.989807 323.170990,525.790894 328.284393,533.702576 
	C329.784515,536.023621 331.543610,537.125732 334.644470,537.103088 
	C359.809448,536.918823 384.976624,536.938354 410.142303,537.065613 
	C413.931396,537.084778 416.712860,535.894592 419.343018,533.228088 
	C431.748596,520.651062 444.403931,508.318726 456.714935,495.651062 
	C460.606262,491.647003 465.061676,490.036652 470.347961,490.013794 
	C480.180969,489.971283 490.016418,489.886993 499.846252,490.068817 
	C502.910309,490.125458 504.774750,489.286316 505.954712,486.354004 
	C512.541565,469.984802 519.262451,453.669586 525.884766,437.314545 
	C527.537842,433.231964 528.932678,429.045258 530.559448,424.951447 
	C532.788025,419.343323 531.031921,412.461792 526.160950,408.706940 
	C513.850281,399.217102 501.797668,401.419495 493.193817,414.289703 
	C481.115326,432.357483 470.653961,451.502686 459.391083,470.120575 
	C451.433807,483.274261 443.643433,496.550079 435.130920,509.340332 
	C427.715149,520.482666 416.200653,526.072998 403.367950,527.772766 
	C390.416901,529.488342 377.634735,527.721436 366.492828,519.942749 
	C355.311188,512.136353 347.802094,501.665375 344.437347,488.000000 
	C334.145111,488.000000 323.829987,487.999939 313.514893,488.000000 
	C300.181732,488.000061 286.845856,487.863434 273.518036,488.130280 
	C271.203827,488.176605 268.434387,489.398346 266.715668,490.986633 
	C260.478363,496.750946 254.867615,503.210083 248.481720,508.790558 
	C244.717865,512.079651 244.116608,515.386597 245.012177,519.895508 
	C248.417435,537.039978 235.958191,547.312012 223.770096,548.914307 
	C213.193771,550.304626 204.477188,546.417542 199.142410,537.094299 
	C193.584427,527.380981 194.462769,517.177246 200.639328,508.175964 
	C205.035522,501.769135 216.497284,497.454132 224.529266,499.427948 
	C228.006805,500.282562 230.091721,499.639618 232.344711,497.201447 
	C238.422943,490.623596 245.080399,484.532074 250.702759,477.594940 
	C257.023560,469.795959 265.182800,467.870667 274.412109,468.006866 
	C295.517914,468.318329 316.623199,468.668762 337.728790,468.996246 
	C339.551819,469.024536 341.375641,469.000031 343.639771,469.000031 
	C345.532166,454.730316 354.627106,443.858124 361.453094,431.017395 
	C354.724091,431.017395 348.755768,430.637756 342.887756,431.238464 
	C341.019379,431.429688 339.094025,433.994110 337.747101,435.869354 
	C329.445648,447.426880 315.694183,449.204529 304.734192,441.754028 
	C296.513214,436.165436 291.510315,427.948761 293.174255,417.620972 
	C294.850739,407.214996 300.757751,399.511017 311.255890,396.360077 
	C321.397736,393.316040 332.983978,397.803894 338.928589,407.063873 
	C340.820068,410.010345 342.798981,411.246918 346.387512,411.097412 
	C354.040802,410.778625 361.728302,410.751373 369.377777,411.112915 
	C372.795685,411.274445 374.466614,409.755646 375.945190,407.231628 
	C392.649414,378.716553 409.023773,350.000519 426.202545,321.774109 
	C436.295990,305.189606 451.007202,295.826569 471.384399,295.899567 
	C543.382446,296.157532 615.383423,295.755554 687.380066,296.161102 
	C706.911926,296.271088 725.141602,301.717285 738.603210,317.230133 
	C745.046143,324.654755 750.835999,332.654053 756.793030,340.490784 
	C770.078003,357.967560 783.279419,375.507904 796.520386,393.018127 
	C803.835632,402.691986 811.358215,412.218964 818.348694,422.121796 
	C820.144104,424.665222 821.883606,425.023651 824.445862,425.020782 
	C853.778809,424.987823 883.112000,424.925262 912.444519,425.036926 
	C924.097656,425.081299 933.970825,429.827026 942.789612,437.238159 
	C951.598206,444.640717 957.513977,454.124695 959.335815,465.133728 
	C962.082031,481.727570 959.783020,497.609192 947.724060,510.841370 
	C936.520996,523.134277 922.816162,528.588684 906.216003,528.100220 
	C890.396545,527.634827 874.550476,527.868164 858.721985,528.138428 
	C856.269592,528.180298 853.348877,529.512512 851.499695,531.190369 
	C843.513428,538.436707 835.988525,546.193665 827.953369,553.382263 
	C826.108704,555.032593 822.915039,555.864807 820.330872,555.889526 
	C799.666382,556.087097 778.998413,556.089966 758.333557,555.913696 
	C754.790466,555.883423 752.890930,557.133606 750.901123,559.970276 
	C742.945618,571.311584 732.347717,573.661682 720.035095,569.368896 
	C710.662842,566.101318 704.657471,555.251892 705.001343,544.351929 
	C705.284424,535.381775 713.483948,525.418030 723.380310,522.018494 
	C733.514465,518.537292 743.042236,521.966919 750.972046,532.752258 
	C753.010254,535.524353 754.973572,536.048401 757.915710,536.035095 
	C773.748535,535.963806 789.581970,535.964111 805.414734,536.040710 
	C807.844421,536.052429 810.268188,536.620728 812.700623,536.875854 
	C817.169128,537.344482 820.057800,534.680115 822.784790,531.717834 
	C823.663757,530.763062 824.550354,529.815430 826.236328,528.000000 
	C814.073608,528.000000 802.852966,528.155212 791.640625,527.917603 
	C787.599121,527.831970 783.508423,527.093201 779.559753,526.151123 
	C766.011353,522.918579 756.848755,513.859985 748.950623,502.989380 
	C739.323547,489.739075 729.399475,476.704590 719.447144,463.366791 
	C713.647034,475.869812 707.888306,488.121704 702.270874,500.438019 
	C696.500305,513.090149 690.875854,525.808899 685.172363,538.491638 
	C680.070129,549.837402 674.889832,561.148743 669.915283,572.550049 
	C669.370239,573.799316 669.447571,575.814697 670.092468,577.014648 
	C680.175659,595.777771 690.428101,614.449829 700.581787,633.175232 
	C707.768738,646.429443 714.813599,659.760803 722.014160,673.007629 
	C736.256287,699.208679 750.590881,725.359558 764.829956,751.562256 
	C771.949768,764.664368 778.887756,777.865234 786.005981,790.968140 
	C800.241638,817.172180 814.738586,843.236694 828.721436,869.574463 
	C834.065857,879.641052 840.004883,889.879456 842.679077,900.774475 
	C848.173218,923.158264 839.567871,944.623169 819.462524,956.777649 
	C801.352844,967.725769 770.381470,965.981812 755.282166,948.511047 
	C749.999207,942.398315 746.062500,935.025879 742.109253,927.896851 
	C739.805725,923.742920 737.501465,920.906067 732.339844,921.964966 
	C731.220337,922.194702 729.999634,922.115417 728.849060,921.979675 
	C721.593018,921.123901 716.624939,923.064087 711.413513,929.401672 
	C703.488220,939.039429 691.822510,940.270142 680.309692,932.460510 
	C672.299622,927.027039 667.439880,918.733765 669.179321,908.605225 
	C670.916382,898.490356 676.414246,890.779175 686.860718,887.606567 
	C696.764771,884.598633 708.919250,888.143677 714.352783,897.273132 
	C717.816956,903.093750 721.927551,902.008728 727.470459,901.717407 
	C723.193970,893.693542 719.214600,886.213318 715.212341,878.745422 
	C714.904419,878.170959 714.213989,877.735596 714.074036,877.146912 
	C711.537781,866.481018 704.133301,864.937073 694.579895,865.854431 
	C686.651611,866.615723 677.705627,863.931335 670.855957,866.759216 
	C664.016418,869.582886 659.221008,877.358704 653.530884,882.965088 
	C652.818665,883.666992 652.197632,884.492676 651.395508,885.067078 
	C645.993652,888.935669 644.506897,893.395447 646.700928,900.178711 
	C649.176025,907.831055 642.403381,919.667053 634.112427,923.917053 
	C619.304871,931.507568 602.104187,925.436401 597.793030,909.290222 
	C595.467773,900.582153 596.325317,891.772644 602.632446,885.204285 
	C608.814697,878.765869 616.930176,875.694763 626.395142,877.566956 
	C628.364380,877.956543 631.348999,876.933472 632.818481,875.493042 
	C639.687073,868.760925 646.578613,861.978088 652.708496,854.588379 
	C658.415100,847.708862 665.774353,846.217468 673.834351,846.037781 
	C681.580261,845.865173 689.333008,846.000427 697.430237,846.000427 
	C689.293945,831.067444 680.887390,815.638367 672.325378,799.924011 
	C671.523499,800.458374 670.640381,800.861633 669.995728,801.504150 
	C659.372131,812.092957 648.715881,822.650146 638.195557,833.340942 
	C627.190674,844.524048 616.217285,855.742554 605.450745,867.153748 
	C601.526306,871.313110 597.077576,873.066284 591.458801,873.046387 
	C563.626221,872.947815 535.792908,873.048340 507.960419,872.940735 
	C504.500031,872.927368 502.297302,873.711060 500.348450,876.947510 
	C494.294006,887.001770 484.425354,889.432373 473.780609,887.788086 
	C463.768982,886.241516 456.647614,880.115417 454.491577,869.874023 
	C450.271606,849.828613 462.947906,834.649475 483.810059,837.798828 
	C491.879578,839.016968 497.053558,843.590332 501.479706,849.820740 
	C502.245361,850.898560 503.974854,851.902527 505.263428,851.907898 
	C532.762512,852.023010 560.262329,852.023865 587.761414,851.900879 
	C589.348022,851.893799 591.317993,851.039246 592.454163,849.916077 
	C608.098022,834.450317 623.671570,818.912537 639.162292,803.293213 
	C645.692688,796.708618 651.878357,789.780701 658.449463,783.238708 
	C660.835571,780.863281 661.250977,779.003113 659.580078,775.989441 
	C647.662781,754.495728 635.864746,732.935486 624.117554,711.348083 
	C616.990601,698.251282 610.055725,685.050171 602.972351,671.929443 
	C596.993286,660.854370 590.924622,649.827698 584.550415,638.147156 
	C585.055847,650.831055 585.484741,662.701965 586.013245,674.568420 
	C586.631409,688.448364 587.324402,702.325073 588.007263,716.202026 
	C588.657410,729.413940 589.350769,742.623718 589.996948,755.835876 
	C590.360657,763.273193 590.775146,770.710327 590.979919,778.152771 
	C591.615417,801.244812 573.709595,822.088684 552.005737,826.957520 
	C549.147583,827.598694 546.161987,827.942627 543.233398,827.955383 
	C523.567383,828.041138 503.900299,827.908081 484.234528,828.018005 
	C434.295929,828.297119 384.358093,828.806519 334.419373,828.896545 
	C322.695160,828.917664 311.262695,826.640747 301.221680,818.914551 
	C295.309814,824.948181 289.205322,830.658447 283.844452,836.997681 
	C282.418671,838.683594 282.670288,842.417908 283.180695,845.008972 
	C286.453705,861.624084 273.404602,873.266113 260.136261,874.009216 
	C249.818848,874.586975 241.900406,870.648071 236.927032,861.507568 
	C231.710205,851.919739 232.989594,842.421082 238.344803,833.397583 
	C241.863510,827.468506 255.699249,822.374878 262.669830,824.434570 
	C265.882996,825.384033 268.022125,824.848328 270.090393,822.449524 
	C272.785065,819.323975 275.465546,816.166199 278.397705,813.270996 
	C281.348541,810.357239 284.600464,807.748352 287.845428,804.896179 
	C280.962189,794.440979 278.838165,783.826294 280.210052,772.006470 
	C274.425812,772.006470 269.244781,771.538757 264.224274,772.232483 
	C262.163788,772.517151 260.069122,775.030945 258.637817,777.001343 
	C246.836761,793.246643 225.609055,788.300537 216.974411,773.203857 
	C208.534424,758.447571 219.470108,740.730042 231.964462,737.444397 
	C242.488861,734.676880 253.745407,738.620850 259.987793,748.219788 
	C261.764160,750.951294 263.620941,752.531555 267.063446,752.059509 
	C269.353668,751.745422 271.776825,751.674500 274.045441,752.057617 
	C282.848419,753.544067 288.985840,750.628113 291.679443,741.402222 
	C279.458435,729.123840 266.958069,716.444519 254.250320,703.976624 
	C252.925568,702.676880 250.374802,702.091797 248.388519,702.082336 
	C222.556137,701.959473 196.722351,702.085083 170.890732,701.898315 
	C167.507477,701.873901 166.455002,703.857788 164.995682,705.971436 
	C157.058395,717.467651 146.086594,719.720581 134.112335,715.357483 
	C123.440392,711.469055 118.314789,700.450256 119.127357,689.902710 
	C120.038490,678.075684 127.960121,670.025024 139.484192,667.976746 
	C151.708450,665.804016 160.147217,669.885681 166.269623,680.372986 
	C167.115784,681.822327 169.875626,682.879944 171.756592,682.890686 
	C199.421967,683.049438 227.088837,683.066101 254.754501,682.935486 
	C259.410797,682.913574 263.018494,684.471680 266.212982,687.683594 
	C278.670837,700.209351 291.231293,712.633423 303.643616,725.203857 
	C306.883850,728.485413 309.752686,729.731262 314.500061,727.496277 
	C318.344788,725.686340 323.074677,725.113403 327.415558,725.099243 
	C375.581024,724.941650 423.747681,724.902100 471.912415,725.149048 
	C476.817078,725.174255 479.934357,723.762207 482.556976,719.235291 
	C480.596344,719.149597 478.886749,719.010986 477.177063,719.009827 
	C455.510712,718.995117 433.844147,718.953918 412.178101,719.033630 
	C406.930023,719.052917 402.732666,717.367493 398.971313,713.572083 
	C377.385162,691.790588 355.560028,670.245178 334.053986,648.385559 
	C330.059845,644.325745 326.203033,642.675049 320.348999,642.808472 
	C299.193604,643.290710 278.020599,642.998413 256.854218,642.998596 
	C255.354248,642.998596 253.844696,643.109009 252.355911,642.979919 
	C244.995453,642.341919 239.251434,643.428589 233.833481,650.174927 
	C222.524612,664.256592 197.259644,658.417786 192.383621,639.915100 
	C189.811081,630.153259 194.145523,616.714905 201.788696,612.058289 
	C212.159302,605.739990 225.488739,606.692688 233.844376,614.356079 
	C234.335022,614.806091 235.018890,615.221191 235.215103,615.789795 
	C237.754288,623.147156 243.531433,623.164673 250.004593,623.103516 
	C276.335205,622.854370 302.669617,623.029663 329.002441,622.973755 
	C334.053467,622.963074 338.158875,624.553589 341.792877,628.212830 
	C364.341309,650.917664 386.956085,673.557617 409.731659,696.033875 
	C411.756592,698.032227 415.071838,699.786560 417.813965,699.825806 
	C439.142548,700.131226 460.477539,699.991150 481.810486,699.968689 
	C482.451447,699.968018 483.092133,699.746704 483.597656,699.653259 
	C483.389343,697.400513 483.098785,695.299500 483.015137,693.190308 
	C482.319366,675.647034 481.724487,658.099487 480.971985,640.558716 
	C480.412201,627.509705 479.749603,614.463684 478.966888,601.426270 
	C478.473450,593.207397 477.436401,585.016479 477.105530,576.794373 
	C476.920898,572.206726 477.681946,567.581055 478.309387,562.401001 
	C478.647034,561.390930 478.692139,560.952209 478.737183,560.513550 
	C478.263367,560.781616 477.789551,561.049622 477.315735,561.317627 
M374.500488,668.999512 
	C362.481781,656.981628 350.363556,645.060669 338.507599,632.884399 
	C335.135986,629.421692 331.675232,627.858337 326.754730,627.897461 
	C299.762299,628.112366 272.763641,627.762024 245.775650,628.169800 
	C239.151627,628.269836 234.899857,626.904175 231.699417,620.688171 
	C228.609436,614.686707 219.035324,611.584351 212.561829,613.212341 
	C204.893219,615.141052 197.728363,622.102417 197.063675,628.797974 
	C195.846680,641.056946 200.620758,647.710876 209.983948,651.792297 
	C218.428162,655.473267 229.055283,650.655273 234.045609,641.457886 
	C235.545593,638.693298 237.306107,637.922485 240.302139,637.936218 
	C264.962952,638.049316 289.624512,638.001160 314.285828,637.997192 
	C315.784882,637.996948 317.391418,638.303955 318.765198,637.878296 
	C326.344788,635.529480 332.077026,638.440735 337.264832,643.731506 
	C358.520447,665.409180 379.845245,687.018982 401.154785,708.643799 
	C404.639435,712.179993 408.703308,714.086914 413.866119,714.055481 
	C435.527313,713.923584 457.189728,714.004761 478.851715,713.989990 
	C480.461121,713.988892 482.070435,713.846985 483.587158,713.774963 
	C483.587158,710.625549 483.587158,707.916992 483.587158,704.998535 
	C461.357239,704.998535 439.538147,705.076050 417.721039,704.902832 
	C414.920746,704.880615 411.672333,704.222778 409.437347,702.686829 
	C405.523926,699.997375 402.123688,696.512329 398.707642,693.157776 
	C390.742340,685.335754 382.895386,677.393250 374.500488,668.999512 
M272.617798,571.211853 
	C268.962128,571.196777 264.936279,570.176086 261.721741,571.359436 
	C252.865707,574.619385 246.950089,580.587097 247.042984,591.743042 
	C247.119171,600.895142 254.249863,608.095886 265.315857,610.671997 
	C271.633850,612.142700 280.620209,606.971863 284.137573,599.330933 
	C285.769501,595.785889 287.933228,594.896851 291.696655,594.908325 
	C338.194794,595.050781 384.693634,595.034363 431.191864,594.907104 
	C433.626221,594.900452 436.718414,594.234070 438.376343,592.675232 
	C446.124969,585.389465 453.427460,577.631897 460.989227,570.143799 
	C466.140747,565.042542 470.958130,559.380188 476.860413,555.332947 
	C481.429749,552.199707 481.269714,548.523926 481.912750,544.315613 
	C476.627014,543.297974 473.074158,545.416504 469.912140,548.580322 
	C458.955597,559.543213 448.137573,570.651184 436.930420,581.351501 
	C434.516846,583.655884 430.706024,585.784485 427.525299,585.804138 
	C381.528442,586.088562 335.529205,586.024658 289.531067,585.882629 
	C288.041382,585.878052 286.365021,584.366272 285.105591,583.200684 
	C281.073364,579.468872 277.196503,575.569153 272.617798,571.211853 
M413.724426,551.034302 
	C418.405548,551.806519 422.176147,550.496765 425.604095,546.994873 
	C437.723328,534.614075 450.113129,522.498535 462.275604,510.159363 
	C465.871063,506.511749 469.855164,504.711334 475.044464,504.933105 
	C481.529968,505.210236 488.039673,505.107483 494.530914,504.908600 
	C495.859253,504.867920 497.722595,504.010162 498.345062,502.946960 
	C499.714630,500.607727 500.449158,497.896667 501.573883,495.000000 
	C491.369385,495.000000 481.550934,495.046509 471.733185,494.980225 
	C466.867889,494.947388 462.872955,496.505676 459.383331,500.047668 
	C446.756165,512.864258 434.082275,525.640259 421.140900,538.136353 
	C419.018219,540.186035 415.471313,541.805786 412.564362,541.835449 
	C385.411560,542.112915 358.254547,541.950195 331.099426,542.068237 
	C328.014313,542.081665 326.717896,540.722656 324.907379,538.431213 
	C321.860077,534.574341 318.338928,530.397766 314.062103,528.362061 
	C306.852112,524.930298 299.096588,526.440735 293.600281,532.209717 
	C288.016754,538.070190 285.842346,545.230103 288.729095,553.788086 
	C291.284271,561.363098 299.372559,566.063354 306.749573,566.892090 
	C312.773682,567.568726 323.120972,561.482849 324.772949,555.870605 
	C326.088165,551.402405 328.526367,550.925720 332.386414,550.942200 
	C359.208405,551.056702 386.031036,551.005920 413.724426,551.034302 
M536.500000,858.000000 
	C525.177002,858.000061 513.852478,857.895813 502.532104,858.067261 
	C499.365021,858.115234 497.673370,857.211304 495.933441,854.334717 
	C490.780090,845.814758 480.436493,839.216675 469.354980,846.172974 
	C460.958038,851.443970 457.413391,862.363037 461.827698,871.445435 
	C465.576233,879.158081 478.071838,885.609863 486.750092,879.857422 
	C490.286987,877.512939 493.278046,874.115295 495.924377,870.732788 
	C497.888184,868.222473 499.608856,866.885925 503.031738,866.905396 
	C532.170654,867.071472 561.311951,867.104248 590.449402,866.838257 
	C593.351746,866.811707 596.947937,865.248901 599.013000,863.187683 
	C617.242737,844.993103 635.159546,826.485413 653.261169,808.161560 
	C658.248657,803.112793 663.546143,798.370178 668.743408,793.447327 
	C667.457397,790.990479 666.182373,788.554626 664.716248,785.753662 
	C658.195312,792.634399 652.098389,799.222229 645.829407,805.641968 
	C638.685120,812.958191 631.315186,820.054016 624.174805,827.373962 
	C615.459656,836.308350 606.984497,845.479492 598.157593,854.300110 
	C596.355286,856.101257 593.544067,857.546875 591.039856,857.849670 
	C586.409485,858.409668 581.662292,858.000610 576.963745,858.000061 
	C563.809143,857.998718 550.654602,857.999756 536.500000,858.000000 
M190.500000,697.000000 
	C209.990128,697.000000 229.480942,697.086548 248.969788,696.928223 
	C252.952438,696.895935 255.830658,698.209900 258.571960,700.998779 
	C269.781677,712.402954 281.145874,723.655396 292.466827,734.949951 
	C293.601562,736.082092 294.829315,737.121033 295.897156,738.096558 
	C298.639984,736.062073 301.009674,734.304382 303.107239,732.748535 
	C289.550812,719.145691 275.860718,705.566772 262.391144,691.772461 
	C259.339294,688.647034 255.884720,687.653564 251.858597,687.667358 
	C223.559570,687.764160 195.260559,687.929321 166.961975,687.868835 
	C165.481720,687.865601 163.285599,686.341309 162.643295,684.958313 
	C158.245407,675.488647 147.810577,669.346497 136.748428,673.931152 
	C128.884750,677.190247 124.613754,683.436340 124.344536,691.260193 
	C124.125053,697.638489 126.617844,703.735229 132.387466,708.254822 
	C141.357117,715.281189 156.119629,712.539917 161.970123,700.741577 
	C163.463196,697.730591 165.284790,696.813110 168.513397,696.925354 
	C175.501358,697.168152 182.503601,697.000061 190.500000,697.000000 
M273.734985,483.000000 
	C296.996979,483.000000 320.258972,483.000000 343.343811,483.000000 
	C343.099945,479.773468 342.892792,477.032745 342.663971,474.005280 
	C316.671722,474.005280 291.036560,473.968445 265.402191,474.091705 
	C263.766418,474.099579 261.716766,474.932983 260.571075,476.088043 
	C252.037857,484.690613 243.764587,493.551514 235.206314,502.128387 
	C233.509094,503.829315 231.038788,505.371033 228.738617,505.705872 
	C225.752182,506.140564 222.580948,505.274048 219.486237,505.002319 
	C207.938553,503.988281 201.436081,514.512573 200.954849,522.646973 
	C200.186615,535.632446 210.324005,543.248291 219.027939,543.989746 
	C231.584564,545.059448 245.195786,532.267395 238.547592,515.273193 
	C237.558868,512.745850 237.819244,511.591888 239.553787,509.889832 
	C247.164108,502.422241 254.414932,494.565125 262.335785,487.450012 
	C265.004517,485.052673 269.269531,484.432404 273.734985,483.000000 
M810.478882,550.999817 
	C817.169312,550.938843 824.107605,552.162537 829.381226,546.175110 
	C833.974609,540.959839 838.856384,535.999023 843.580078,530.897400 
	C844.265625,530.157104 844.780457,529.258728 846.314880,527.126343 
	C840.929565,528.071594 836.482422,527.860596 833.156738,529.689087 
	C829.074219,531.933716 826.002258,535.970459 822.334656,539.042786 
	C821.181580,540.008789 819.535217,540.864990 818.082825,540.919250 
	C805.492676,541.389343 792.896240,541.876038 780.299866,541.927063 
	C771.369812,541.963257 762.438965,541.225830 753.504272,541.064392 
	C750.801392,541.015503 749.274353,540.428528 747.792847,537.811768 
	C742.326538,528.156311 734.702576,524.691284 725.493896,527.028259 
	C717.009094,529.181519 710.626892,536.379822 710.157837,545.384338 
	C709.870361,550.904236 714.093201,560.904663 721.300964,564.285706 
	C730.137939,568.431030 742.997314,565.140076 747.977173,554.720642 
	C749.440125,551.659851 751.337036,550.903381 754.532227,550.928833 
	C772.849060,551.074951 791.167603,550.999878 810.478882,550.999817 
M680.502930,851.998657 
	C676.174744,851.999084 671.833374,851.800964 667.524231,852.087646 
	C665.516174,852.221252 663.004761,852.725220 661.688416,854.033813 
	C653.103943,862.568604 644.797852,871.382935 636.369995,880.076050 
	C634.135559,882.380798 632.454834,884.415527 628.066589,883.427368 
	C622.270264,882.122070 615.781677,881.916443 610.252319,885.384583 
	C604.105225,889.240173 600.424988,899.302979 602.207581,906.428223 
	C604.209106,914.428101 611.232422,921.007568 618.810547,921.981812 
	C626.761658,923.004028 635.146851,918.429199 638.929382,911.345886 
	C642.747620,904.195618 641.452332,897.296204 638.266663,890.162537 
	C646.396973,882.057190 654.562317,873.996399 662.628357,865.837341 
	C665.941895,862.485596 669.682495,860.827209 674.509583,860.933167 
	C684.567261,861.154053 694.633118,861.000000 704.917358,861.000000 
	C701.680725,852.124084 701.513062,851.998840 693.487122,851.998657 
	C689.491882,851.998535 685.496643,851.998657 680.502930,851.998657 
M320.913361,440.574127 
	C324.813477,438.345612 330.600861,437.045319 332.243011,433.706360 
	C336.383972,425.286682 342.967529,425.590118 350.208771,425.983459 
	C352.200714,426.091675 354.208527,426.088226 356.200745,425.981262 
	C365.367096,425.489014 366.876526,424.371002 369.633087,416.000214 
	C361.233063,416.000214 352.926086,415.863098 344.626862,416.057495 
	C340.420502,416.155975 337.160065,416.030121 335.230957,411.084900 
	C334.097565,408.179504 330.873352,405.876587 328.182770,403.840149 
	C323.802063,400.524506 314.717285,399.012115 306.781525,404.044037 
	C302.320648,406.872620 297.177307,417.074768 298.104248,422.005219 
	C300.444763,434.454559 307.082794,439.711243 320.913361,440.574127 
M285.486938,814.009949 
	C281.206451,818.620056 276.903687,823.209717 272.655029,827.848938 
	C270.552765,830.144409 268.695557,831.060974 265.023193,830.385498 
	C259.138702,829.303223 252.702484,828.895996 247.185608,832.426025 
	C241.050659,836.351624 237.407150,846.461792 239.236526,853.526428 
	C241.312149,861.542114 248.393311,868.098389 255.935532,868.987671 
	C264.031128,869.942078 272.146698,865.432007 275.987885,858.211609 
	C279.798553,851.048523 278.382935,844.147217 275.136292,836.856995 
	C282.400452,829.754944 289.639740,822.677246 296.606934,815.865601 
	C294.477997,813.486877 292.521881,811.301208 290.246765,808.759155 
	C288.652924,810.539551 287.319580,812.028931 285.486938,814.009949 
M251.978104,776.528931 
	C253.530899,774.618652 255.665680,772.931763 256.504120,770.747314 
	C257.862396,767.208740 260.167633,766.787903 263.391998,766.945007 
	C267.874481,767.163391 272.376953,766.932739 276.868256,767.023743 
	C279.390991,767.074829 280.906738,766.484802 281.115784,763.523560 
	C281.259369,761.489746 282.256744,759.516174 283.031189,757.000183 
	C277.193085,757.000183 271.714691,756.666565 266.297302,757.098206 
	C261.324768,757.494324 257.867157,756.493042 255.744156,751.456421 
	C254.818451,749.260315 252.402908,747.570984 250.409180,745.968445 
	C243.781281,740.640869 236.597504,740.500549 229.280914,744.353394 
	C222.114212,748.127258 219.167160,755.071045 219.298355,762.312134 
	C219.448761,770.616150 224.004501,776.943420 232.376587,780.191162 
	C239.565598,782.979858 245.708496,781.810425 251.978104,776.528931 
M699.239685,930.991150 
	C705.320251,929.515564 709.094238,925.183228 711.861572,920.055481 
	C713.174622,917.622375 714.529602,916.859802 717.146423,916.942383 
	C723.020447,917.127747 728.904358,917.000427 734.963501,917.000427 
	C732.633423,908.230774 731.129639,907.000427 723.444885,907.000183 
	C721.949158,907.000122 720.431396,906.836121 718.961975,907.032654 
	C715.376526,907.512268 713.551270,906.108521 711.766357,902.786560 
	C706.637207,893.239868 694.890991,889.438416 686.169312,893.255798 
	C676.911804,897.307739 671.122437,910.264465 676.685303,921.434692 
	C679.477112,927.040466 692.886536,934.406128 699.239685,930.991150 
z"/>
<path fill="#20D54D" opacity="1.000000" stroke="none" 
	d="
M646.684448,164.735687 
	C657.814087,145.033920 673.588745,131.228989 694.639771,123.939308 
	C700.732056,121.829643 707.338989,120.354156 713.748901,120.199699 
	C725.395508,119.919052 737.139404,118.818100 748.627197,122.873238 
	C760.052734,126.906403 770.607483,132.272964 779.685974,140.252548 
	C794.063538,152.889679 803.449768,168.452896 807.234253,187.422989 
	C810.918945,205.892761 809.271606,223.617569 801.627991,240.854553 
	C793.359863,259.499695 779.864136,273.233337 761.915283,282.409271 
	C745.479492,290.811707 727.909302,292.641907 709.626587,290.140839 
	C690.257874,287.491150 674.012146,278.864166 660.718994,265.020172 
	C648.199829,251.982346 640.508850,236.315933 637.901611,218.141632 
	C635.220093,199.448715 638.277588,181.881439 646.684448,164.735687 
z"/>
<path fill="#000000" opacity="1.000000" stroke="none" 
	d="
M374.750488,669.249512 
	C382.895386,677.393250 390.742340,685.335754 398.707642,693.157776 
	C402.123688,696.512329 405.523926,699.997375 409.437347,702.686829 
	C411.672333,704.222778 414.920746,704.880615 417.721039,704.902832 
	C439.538147,705.076050 461.357239,704.998535 483.587158,704.998535 
	C483.587158,707.916992 483.587158,710.625549 483.587158,713.774963 
	C482.070435,713.846985 480.461121,713.988892 478.851715,713.989990 
	C457.189728,714.004761 435.527313,713.923584 413.866119,714.055481 
	C408.703308,714.086914 404.639435,712.179993 401.154785,708.643799 
	C379.845245,687.018982 358.520447,665.409180 337.264832,643.731506 
	C332.077026,638.440735 326.344788,635.529480 318.765198,637.878296 
	C317.391418,638.303955 315.784882,637.996948 314.285828,637.997192 
	C289.624512,638.001160 264.962952,638.049316 240.302139,637.936218 
	C237.306107,637.922485 235.545593,638.693298 234.045609,641.457886 
	C229.055283,650.655273 218.428162,655.473267 209.983948,651.792297 
	C200.620758,647.710876 195.846680,641.056946 197.063675,628.797974 
	C197.728363,622.102417 204.893219,615.141052 212.561829,613.212341 
	C219.035324,611.584351 228.609436,614.686707 231.699417,620.688171 
	C234.899857,626.904175 239.151627,628.269836 245.775650,628.169800 
	C272.763641,627.762024 299.762299,628.112366 326.754730,627.897461 
	C331.675232,627.858337 335.135986,629.421692 338.507599,632.884399 
	C350.363556,645.060669 362.481781,656.981628 374.750488,669.249512 
M216.508331,622.000854 
	C211.305847,622.494141 206.662125,626.343018 206.021317,630.692810 
	C205.231262,636.055664 207.176193,640.103516 211.541595,642.181519 
	C216.076492,644.340332 221.944839,643.157349 224.997803,639.468994 
	C230.507172,632.813049 226.604904,623.920288 216.508331,622.000854 
z"/>
<path fill="#000000" opacity="1.000000" stroke="none" 
	d="
M272.938721,571.473083 
	C277.196503,575.569153 281.073364,579.468872 285.105591,583.200684 
	C286.365021,584.366272 288.041382,585.878052 289.531067,585.882629 
	C335.529205,586.024658 381.528442,586.088562 427.525299,585.804138 
	C430.706024,585.784485 434.516846,583.655884 436.930420,581.351501 
	C448.137573,570.651184 458.955597,559.543213 469.912140,548.580322 
	C473.074158,545.416504 476.627014,543.297974 481.912750,544.315613 
	C481.269714,548.523926 481.429749,552.199707 476.860413,555.332947 
	C470.958130,559.380188 466.140747,565.042542 460.989227,570.143799 
	C453.427460,577.631897 446.124969,585.389465 438.376343,592.675232 
	C436.718414,594.234070 433.626221,594.900452 431.191864,594.907104 
	C384.693634,595.034363 338.194794,595.050781 291.696655,594.908325 
	C287.933228,594.896851 285.769501,595.785889 284.137573,599.330933 
	C280.620209,606.971863 271.633850,612.142700 265.315857,610.671997 
	C254.249863,608.095886 247.119171,600.895142 247.042984,591.743042 
	C246.950089,580.587097 252.865707,574.619385 261.721741,571.359436 
	C264.936279,570.176086 268.962128,571.196777 272.938721,571.473083 
M273.333588,581.884583 
	C272.004974,581.315918 270.722961,580.566162 269.339600,580.210205 
	C263.581909,578.728577 257.877655,582.358093 256.269989,588.416138 
	C255.176132,592.538025 259.011688,599.675232 262.985107,600.911621 
	C267.584930,602.342957 273.813416,600.079102 276.419525,596.028625 
	C279.184845,591.730774 278.303223,586.924561 273.333588,581.884583 
z"/>
<path fill="#000000" opacity="1.000000" stroke="none" 
	d="
M413.288940,551.021240 
	C386.031036,551.005920 359.208405,551.056702 332.386414,550.942200 
	C328.526367,550.925720 326.088165,551.402405 324.772949,555.870605 
	C323.120972,561.482849 312.773682,567.568726 306.749573,566.892090 
	C299.372559,566.063354 291.284271,561.363098 288.729095,553.788086 
	C285.842346,545.230103 288.016754,538.070190 293.600281,532.209717 
	C299.096588,526.440735 306.852112,524.930298 314.062103,528.362061 
	C318.338928,530.397766 321.860077,534.574341 324.907379,538.431213 
	C326.717896,540.722656 328.014313,542.081665 331.099426,542.068237 
	C358.254547,541.950195 385.411560,542.112915 412.564362,541.835449 
	C415.471313,541.805786 419.018219,540.186035 421.140900,538.136353 
	C434.082275,525.640259 446.756165,512.864258 459.383331,500.047668 
	C462.872955,496.505676 466.867889,494.947388 471.733185,494.980225 
	C481.550934,495.046509 491.369385,495.000000 501.573883,495.000000 
	C500.449158,497.896667 499.714630,500.607727 498.345062,502.946960 
	C497.722595,504.010162 495.859253,504.867920 494.530914,504.908600 
	C488.039673,505.107483 481.529968,505.210236 475.044464,504.933105 
	C469.855164,504.711334 465.871063,506.511749 462.275604,510.159363 
	C450.113129,522.498535 437.723328,534.614075 425.604095,546.994873 
	C422.176147,550.496765 418.405548,551.806519 413.288940,551.021240 
M302.148254,537.369812 
	C296.436707,540.801514 294.904175,546.088074 297.962769,551.807678 
	C300.668182,556.866882 306.439331,558.592407 312.001068,556.005066 
	C317.206085,553.583740 319.525757,548.097534 317.495453,543.010986 
	C315.096924,537.002014 309.332489,534.644897 302.148254,537.369812 
z"/>
<path fill="#000000" opacity="1.000000" stroke="none" 
	d="
M537.000000,857.999939 
	C550.654602,857.999756 563.809143,857.998718 576.963745,858.000061 
	C581.662292,858.000610 586.409485,858.409668 591.039856,857.849670 
	C593.544067,857.546875 596.355286,856.101257 598.157593,854.300110 
	C606.984497,845.479492 615.459656,836.308350 624.174805,827.373962 
	C631.315186,820.054016 638.685120,812.958191 645.829407,805.641968 
	C652.098389,799.222229 658.195312,792.634399 664.716248,785.753662 
	C666.182373,788.554626 667.457397,790.990479 668.743408,793.447327 
	C663.546143,798.370178 658.248657,803.112793 653.261169,808.161560 
	C635.159546,826.485413 617.242737,844.993103 599.013000,863.187683 
	C596.947937,865.248901 593.351746,866.811707 590.449402,866.838257 
	C561.311951,867.104248 532.170654,867.071472 503.031738,866.905396 
	C499.608856,866.885925 497.888184,868.222473 495.924377,870.732788 
	C493.278046,874.115295 490.286987,877.512939 486.750092,879.857422 
	C478.071838,885.609863 465.576233,879.158081 461.827698,871.445435 
	C457.413391,862.363037 460.958038,851.443970 469.354980,846.172974 
	C480.436493,839.216675 490.780090,845.814758 495.933441,854.334717 
	C497.673370,857.211304 499.365021,858.115234 502.532104,858.067261 
	C513.852478,857.895813 525.177002,858.000061 537.000000,857.999939 
M468.744965,867.276794 
	C472.503387,873.389282 477.176941,875.705994 482.623444,873.657776 
	C487.269440,871.910645 490.603485,869.516113 490.038513,861.525757 
	C489.700928,856.751526 486.643036,852.698547 482.388245,852.027405 
	C475.515198,850.943298 469.667786,853.326172 468.395416,858.288574 
	C467.721649,860.916321 468.244232,863.850769 468.744965,867.276794 
z"/>
<path fill="#000000" opacity="1.000000" stroke="none" 
	d="
M190.000000,697.000000 
	C182.503601,697.000061 175.501358,697.168152 168.513397,696.925354 
	C165.284790,696.813110 163.463196,697.730591 161.970123,700.741577 
	C156.119629,712.539917 141.357117,715.281189 132.387466,708.254822 
	C126.617844,703.735229 124.125053,697.638489 124.344536,691.260193 
	C124.613754,683.436340 128.884750,677.190247 136.748428,673.931152 
	C147.810577,669.346497 158.245407,675.488647 162.643295,684.958313 
	C163.285599,686.341309 165.481720,687.865601 166.961975,687.868835 
	C195.260559,687.929321 223.559570,687.764160 251.858597,687.667358 
	C255.884720,687.653564 259.339294,688.647034 262.391144,691.772461 
	C275.860718,705.566772 289.550812,719.145691 303.107239,732.748535 
	C301.009674,734.304382 298.639984,736.062073 295.897156,738.096558 
	C294.829315,737.121033 293.601562,736.082092 292.466827,734.949951 
	C281.145874,723.655396 269.781677,712.402954 258.571960,700.998779 
	C255.830658,698.209900 252.952438,696.895935 248.969788,696.928223 
	C229.480942,697.086548 209.990128,697.000000 190.000000,697.000000 
M154.751038,695.679871 
	C154.831375,693.858215 155.143295,692.010986 154.945816,690.219971 
	C154.474869,685.948608 151.427200,683.554199 147.762238,682.452698 
	C144.107513,681.354248 139.703995,680.956055 137.268295,684.495972 
	C135.347961,687.286804 133.998413,691.064941 133.963074,694.421021 
	C133.908112,699.643738 138.165710,702.023987 142.729889,702.895264 
	C148.189728,703.937500 151.819168,700.981384 154.751038,695.679871 
z"/>
<path fill="#000000" opacity="1.000000" stroke="none" 
	d="
M273.270020,483.000000 
	C269.269531,484.432404 265.004517,485.052673 262.335785,487.450012 
	C254.414932,494.565125 247.164108,502.422241 239.553787,509.889832 
	C237.819244,511.591888 237.558868,512.745850 238.547592,515.273193 
	C245.195786,532.267395 231.584564,545.059448 219.027939,543.989746 
	C210.324005,543.248291 200.186615,535.632446 200.954849,522.646973 
	C201.436081,514.512573 207.938553,503.988281 219.486237,505.002319 
	C222.580948,505.274048 225.752182,506.140564 228.738617,505.705872 
	C231.038788,505.371033 233.509094,503.829315 235.206314,502.128387 
	C243.764587,493.551514 252.037857,484.690613 260.571075,476.088043 
	C261.716766,474.932983 263.766418,474.099579 265.402191,474.091705 
	C291.036560,473.968445 316.671722,474.005280 342.663971,474.005280 
	C342.892792,477.032745 343.099945,479.773468 343.343811,483.000000 
	C320.258972,483.000000 296.996979,483.000000 273.270020,483.000000 
M224.128006,533.929016 
	C230.583893,530.457214 233.175613,524.250793 230.381851,518.952942 
	C227.244904,513.004272 221.362045,511.492126 215.014099,515.002686 
	C210.438919,517.532898 208.539032,523.283142 210.661346,528.176758 
	C212.946091,533.444885 218.087234,535.808411 224.128006,533.929016 
z"/>
<path fill="#000000" opacity="1.000000" stroke="none" 
	d="
M809.982239,550.999817 
	C791.167603,550.999878 772.849060,551.074951 754.532227,550.928833 
	C751.337036,550.903381 749.440125,551.659851 747.977173,554.720642 
	C742.997314,565.140076 730.137939,568.431030 721.300964,564.285706 
	C714.093201,560.904663 709.870361,550.904236 710.157837,545.384338 
	C710.626892,536.379822 717.009094,529.181519 725.493896,527.028259 
	C734.702576,524.691284 742.326538,528.156311 747.792847,537.811768 
	C749.274353,540.428528 750.801392,541.015503 753.504272,541.064392 
	C762.438965,541.225830 771.369812,541.963257 780.299866,541.927063 
	C792.896240,541.876038 805.492676,541.389343 818.082825,540.919250 
	C819.535217,540.864990 821.181580,540.008789 822.334656,539.042786 
	C826.002258,535.970459 829.074219,531.933716 833.156738,529.689087 
	C836.482422,527.860596 840.929565,528.071594 846.314880,527.126343 
	C844.780457,529.258728 844.265625,530.157104 843.580078,530.897400 
	C838.856384,535.999023 833.974609,540.959839 829.381226,546.175110 
	C824.107605,552.162537 817.169312,550.938843 809.982239,550.999817 
M740.939941,544.035156 
	C739.721985,540.470398 737.694336,537.727234 733.934265,536.422058 
	C728.557190,534.555603 722.389343,536.723511 720.731262,541.893555 
	C718.827820,547.828674 719.607727,553.097961 725.342590,555.785400 
	C733.463928,559.591187 740.944824,554.499084 740.939941,544.035156 
z"/>
<path fill="#000000" opacity="1.000000" stroke="none" 
	d="
M681.002197,851.998657 
	C685.496643,851.998657 689.491882,851.998535 693.487122,851.998657 
	C701.513062,851.998840 701.680725,852.124084 704.917358,861.000000 
	C694.633118,861.000000 684.567261,861.154053 674.509583,860.933167 
	C669.682495,860.827209 665.941895,862.485596 662.628357,865.837341 
	C654.562317,873.996399 646.396973,882.057190 638.266663,890.162537 
	C641.452332,897.296204 642.747620,904.195618 638.929382,911.345886 
	C635.146851,918.429199 626.761658,923.004028 618.810547,921.981812 
	C611.232422,921.007568 604.209106,914.428101 602.207581,906.428223 
	C600.424988,899.302979 604.105225,889.240173 610.252319,885.384583 
	C615.781677,881.916443 622.270264,882.122070 628.066589,883.427368 
	C632.454834,884.415527 634.135559,882.380798 636.369995,880.076050 
	C644.797852,871.382935 653.103943,862.568604 661.688416,854.033813 
	C663.004761,852.725220 665.516174,852.221252 667.524231,852.087646 
	C671.833374,851.800964 676.174744,851.999084 681.002197,851.998657 
M632.000061,901.504272 
	C631.841187,895.605347 627.820862,890.865356 622.630615,891.074524 
	C616.650513,891.315552 611.066650,895.452026 610.831787,901.339172 
	C610.610535,906.885742 614.900208,912.345032 620.680176,912.924561 
	C626.442261,913.502441 631.489563,908.590637 632.000061,901.504272 
z"/>
<path fill="#000000" opacity="1.000000" stroke="none" 
	d="
M320.532837,440.743713 
	C307.082794,439.711243 300.444763,434.454559 298.104248,422.005219 
	C297.177307,417.074768 302.320648,406.872620 306.781525,404.044037 
	C314.717285,399.012115 323.802063,400.524506 328.182770,403.840149 
	C330.873352,405.876587 334.097565,408.179504 335.230957,411.084900 
	C337.160065,416.030121 340.420502,416.155975 344.626862,416.057495 
	C352.926086,415.863098 361.233063,416.000214 369.633087,416.000214 
	C366.876526,424.371002 365.367096,425.489014 356.200745,425.981262 
	C354.208527,426.088226 352.200714,426.091675 350.208771,425.983459 
	C342.967529,425.590118 336.383972,425.286682 332.243011,433.706360 
	C330.600861,437.045319 324.813477,438.345612 320.532837,440.743713 
M319.315613,410.002228 
	C311.037659,410.281464 307.667297,413.923645 307.981201,422.048615 
	C308.159668,426.667999 310.852875,429.399323 314.802460,430.790314 
	C319.079010,432.296539 324.817535,429.885620 327.110413,426.740112 
	C331.627411,420.543610 327.807373,411.009552 319.315613,410.002228 
z"/>
<path fill="#000000" opacity="1.000000" stroke="none" 
	d="
M285.736572,813.764160 
	C287.319580,812.028931 288.652924,810.539551 290.246765,808.759155 
	C292.521881,811.301208 294.477997,813.486877 296.606934,815.865601 
	C289.639740,822.677246 282.400452,829.754944 275.136292,836.856995 
	C278.382935,844.147217 279.798553,851.048523 275.987885,858.211609 
	C272.146698,865.432007 264.031128,869.942078 255.935532,868.987671 
	C248.393311,868.098389 241.312149,861.542114 239.236526,853.526428 
	C237.407150,846.461792 241.050659,836.351624 247.185608,832.426025 
	C252.702484,828.895996 259.138702,829.303223 265.023193,830.385498 
	C268.695557,831.060974 270.552765,830.144409 272.655029,827.848938 
	C276.903687,823.209717 281.206451,818.620056 285.736572,813.764160 
M248.000122,848.589478 
	C248.184753,854.883057 252.560974,859.906006 257.922852,859.978577 
	C263.211212,860.050110 268.593536,855.488892 268.994354,850.596008 
	C269.563690,843.645996 266.066803,838.634644 260.215912,838.015503 
	C254.595078,837.420715 249.150192,841.765686 248.000122,848.589478 
z"/>
<path fill="#000000" opacity="1.000000" stroke="none" 
	d="
M251.714706,776.783081 
	C245.708496,781.810425 239.565598,782.979858 232.376587,780.191162 
	C224.004501,776.943420 219.448761,770.616150 219.298355,762.312134 
	C219.167160,755.071045 222.114212,748.127258 229.280914,744.353394 
	C236.597504,740.500549 243.781281,740.640869 250.409180,745.968445 
	C252.402908,747.570984 254.818451,749.260315 255.744156,751.456421 
	C257.867157,756.493042 261.324768,757.494324 266.297302,757.098206 
	C271.714691,756.666565 277.193085,757.000183 283.031189,757.000183 
	C282.256744,759.516174 281.259369,761.489746 281.115784,763.523560 
	C280.906738,766.484802 279.390991,767.074829 276.868256,767.023743 
	C272.376953,766.932739 267.874481,767.163391 263.391998,766.945007 
	C260.167633,766.787903 257.862396,767.208740 256.504120,770.747314 
	C255.665680,772.931763 253.530899,774.618652 251.714706,776.783081 
M235.313141,771.745728 
	C245.456100,773.323059 248.955322,768.494812 249.931854,763.186279 
	C250.894714,757.952148 247.077927,752.354736 242.103699,751.101074 
	C237.582520,749.961609 230.991989,752.787476 229.668854,756.928772 
	C228.031845,762.052551 228.243683,768.463379 235.313141,771.745728 
z"/>
<path fill="#000000" opacity="1.000000" stroke="none" 
	d="
M698.832153,931.006104 
	C692.886536,934.406128 679.477112,927.040466 676.685303,921.434692 
	C671.122437,910.264465 676.911804,897.307739 686.169312,893.255798 
	C694.890991,889.438416 706.637207,893.239868 711.766357,902.786560 
	C713.551270,906.108521 715.376526,907.512268 718.961975,907.032654 
	C720.431396,906.836121 721.949158,907.000122 723.444885,907.000183 
	C731.129639,907.000427 732.633423,908.230774 734.963501,917.000427 
	C728.904358,917.000427 723.020447,917.127747 717.146423,916.942383 
	C714.529602,916.859802 713.174622,917.622375 711.861572,920.055481 
	C709.094238,925.183228 705.320251,929.515564 698.832153,931.006104 
M688.182495,920.638733 
	C688.778076,920.913147 689.353210,921.249878 689.972351,921.452209 
	C696.281860,923.514709 702.728638,920.566711 704.702515,914.736572 
	C706.402710,909.714661 703.416077,903.738892 698.151794,901.629944 
	C694.022278,899.975525 687.741272,901.760742 685.323425,905.275940 
	C682.648560,909.164978 683.695557,915.928040 688.182495,920.638733 
z"/>
<path fill="#000000" opacity="1.000000" stroke="none" 
	d="
M477.507538,561.506165 
	C477.789551,561.049622 478.263367,560.781616 478.737183,560.513550 
	C478.692139,560.952209 478.647034,561.390930 478.343231,561.949890 
	C477.956146,561.945007 477.827728,561.819885 477.507538,561.506165 
z"/>
<path fill="#20D54D" opacity="1.000000" stroke="none" 
	d="
M216.920837,622.001831 
	C226.604904,623.920288 230.507172,632.813049 224.997803,639.468994 
	C221.944839,643.157349 216.076492,644.340332 211.541595,642.181519 
	C207.176193,640.103516 205.231262,636.055664 206.021317,630.692810 
	C206.662125,626.343018 211.305847,622.494141 216.920837,622.001831 
M213.672501,637.119202 
	C216.323212,638.356750 219.029175,639.171753 220.922684,636.074402 
	C222.491150,633.508728 222.867996,630.838074 220.094879,628.632935 
	C217.539490,626.600952 214.834518,626.537598 212.730637,628.948364 
	C210.629196,631.356201 209.919037,634.187256 213.672501,637.119202 
z"/>
<path fill="#20D54D" opacity="1.000000" stroke="none" 
	d="
M273.626801,582.143372 
	C278.303223,586.924561 279.184845,591.730774 276.419525,596.028625 
	C273.813416,600.079102 267.584930,602.342957 262.985107,600.911621 
	C259.011688,599.675232 255.176132,592.538025 256.269989,588.416138 
	C257.877655,582.358093 263.581909,578.728577 269.339600,580.210205 
	C270.722961,580.566162 272.004974,581.315918 273.626801,582.143372 
M261.533173,589.977173 
	C262.688934,591.819092 263.471161,594.233948 265.124847,595.311951 
	C266.332642,596.099365 269.123169,595.716248 270.405273,594.768616 
	C271.616608,593.873291 272.781281,590.939697 272.198059,589.998352 
	C270.944061,587.974243 268.744873,585.941284 266.545258,585.348022 
	C265.443207,585.050720 263.491547,587.903320 261.533173,589.977173 
z"/>
<path fill="#20D54D" opacity="1.000000" stroke="none" 
	d="
M302.512329,537.201538 
	C309.332489,534.644897 315.096924,537.002014 317.495453,543.010986 
	C319.525757,548.097534 317.206085,553.583740 312.001068,556.005066 
	C306.439331,558.592407 300.668182,556.866882 297.962769,551.807678 
	C294.904175,546.088074 296.436707,540.801514 302.512329,537.201538 
M312.902039,545.733521 
	C312.066650,544.540466 311.428223,542.601868 310.352722,542.317688 
	C308.423279,541.808044 305.434692,541.488403 304.348694,542.563782 
	C302.965363,543.933594 302.018982,547.236572 302.759827,548.839294 
	C303.498413,550.437195 306.852722,552.092590 308.515869,551.654785 
	C310.324646,551.178772 311.506653,548.321472 312.902039,545.733521 
z"/>
<path fill="#1FD64C" opacity="1.000000" stroke="none" 
	d="
M468.485840,866.961792 
	C468.244232,863.850769 467.721649,860.916321 468.395416,858.288574 
	C469.667786,853.326172 475.515198,850.943298 482.388245,852.027405 
	C486.643036,852.698547 489.700928,856.751526 490.038513,861.525757 
	C490.603485,869.516113 487.269440,871.910645 482.623444,873.657776 
	C477.176941,875.705994 472.503387,873.389282 468.485840,866.961792 
M481.408173,866.902222 
	C484.721802,864.881287 484.776398,861.986206 482.555450,859.486328 
	C481.589020,858.398621 478.519684,857.795654 477.447601,858.518433 
	C475.942505,859.533203 474.378723,862.193848 474.694458,863.781860 
	C475.204590,866.347778 477.015289,869.015137 481.408173,866.902222 
z"/>
<path fill="#20D54D" opacity="1.000000" stroke="none" 
	d="
M154.493835,695.989502 
	C151.819168,700.981384 148.189728,703.937500 142.729889,702.895264 
	C138.165710,702.023987 133.908112,699.643738 133.963074,694.421021 
	C133.998413,691.064941 135.347961,687.286804 137.268295,684.495972 
	C139.703995,680.956055 144.107513,681.354248 147.762238,682.452698 
	C151.427200,683.554199 154.474869,685.948608 154.945816,690.219971 
	C155.143295,692.010986 154.831375,693.858215 154.493835,695.989502 
M149.901001,693.268616 
	C148.391159,691.187134 147.252045,688.108032 145.245743,687.362488 
	C143.824615,686.834351 140.386978,688.979614 139.353973,690.789978 
	C137.708344,693.673889 139.801254,696.512207 142.509460,697.607361 
	C145.731598,698.910217 148.157242,697.040466 149.901001,693.268616 
z"/>
<path fill="#20D54D" opacity="1.000000" stroke="none" 
	d="
M223.737778,533.968994 
	C218.087234,535.808411 212.946091,533.444885 210.661346,528.176758 
	C208.539032,523.283142 210.438919,517.532898 215.014099,515.002686 
	C221.362045,511.492126 227.244904,513.004272 230.381851,518.952942 
	C233.175613,524.250793 230.583893,530.457214 223.737778,533.968994 
M225.668045,526.770081 
	C225.492065,525.033081 225.699585,523.136169 225.056671,521.593811 
	C223.881821,518.775330 221.880402,516.833313 218.573975,518.968262 
	C215.978241,520.644287 213.688095,522.674255 215.722168,526.123657 
	C217.955078,529.910156 220.902191,530.207397 225.668045,526.770081 
z"/>
<path fill="#20D54D" opacity="1.000000" stroke="none" 
	d="
M740.964111,544.446533 
	C740.944824,554.499084 733.463928,559.591187 725.342590,555.785400 
	C719.607727,553.097961 718.827820,547.828674 720.731262,541.893555 
	C722.389343,536.723511 728.557190,534.555603 733.934265,536.422058 
	C737.694336,537.727234 739.721985,540.470398 740.964111,544.446533 
M734.907532,543.647888 
	C732.744141,540.223022 729.488892,539.953979 726.933655,542.292542 
	C725.569702,543.540771 725.013977,546.994934 725.713867,548.838257 
	C726.574097,551.103943 728.929749,553.260498 732.143921,551.389343 
	C734.873413,549.800354 737.207336,548.041138 734.907532,543.647888 
z"/>
<path fill="#20D54D" opacity="1.000000" stroke="none" 
	d="
M631.999878,901.926758 
	C631.489563,908.590637 626.442261,913.502441 620.680176,912.924561 
	C614.900208,912.345032 610.610535,906.885742 610.831787,901.339172 
	C611.066650,895.452026 616.650513,891.315552 622.630615,891.074524 
	C627.820862,890.865356 631.841187,895.605347 631.999878,901.926758 
M622.971985,896.483521 
	C620.887756,897.563843 618.451660,898.293518 616.873169,899.877747 
	C616.125000,900.628784 616.406189,903.641418 617.304077,904.510742 
	C618.697021,905.859314 621.013550,906.838562 622.943237,906.846497 
	C624.271301,906.852051 626.860718,904.696655 626.709473,903.945618 
	C626.215759,901.494324 624.723694,899.244019 622.971985,896.483521 
z"/>
<path fill="#20D54D" opacity="1.000000" stroke="none" 
	d="
M319.726807,410.006958 
	C327.807373,411.009552 331.627411,420.543610 327.110413,426.740112 
	C324.817535,429.885620 319.079010,432.296539 314.802460,430.790314 
	C310.852875,429.399323 308.159668,426.667999 307.981201,422.048615 
	C307.667297,413.923645 311.037659,410.281464 319.726807,410.006958 
M313.006439,420.557861 
	C314.366577,422.351227 315.422852,424.634125 317.208252,425.742432 
	C318.178253,426.344574 321.027374,425.439850 321.878296,424.331451 
	C322.959259,422.923401 323.669342,420.307068 323.072754,418.787415 
	C322.442169,417.181122 319.725739,414.975708 318.565155,415.304901 
	C316.462555,415.901306 314.838470,418.184753 313.006439,420.557861 
z"/>
<path fill="#20D54D" opacity="1.000000" stroke="none" 
	d="
M248.000839,848.176025 
	C249.150192,841.765686 254.595078,837.420715 260.215912,838.015503 
	C266.066803,838.634644 269.563690,843.645996 268.994354,850.596008 
	C268.593536,855.488892 263.211212,860.050110 257.922852,859.978577 
	C252.560974,859.906006 248.184753,854.883057 248.000839,848.176025 
M263.994141,849.466187 
	C262.635742,843.874023 259.824524,841.600525 256.756378,843.965088 
	C255.056885,845.274902 253.037430,847.986450 253.363235,849.629700 
	C253.737885,851.519226 256.480499,854.109985 258.312775,854.208923 
	C260.127167,854.306946 262.088776,851.680481 263.994141,849.466187 
z"/>
<path fill="#20D54D" opacity="1.000000" stroke="none" 
	d="
M234.999741,771.486450 
	C228.243683,768.463379 228.031845,762.052551 229.668854,756.928772 
	C230.991989,752.787476 237.582520,749.961609 242.103699,751.101074 
	C247.077927,752.354736 250.894714,757.952148 249.931854,763.186279 
	C248.955322,768.494812 245.456100,773.323059 234.999741,771.486450 
M234.014435,760.768005 
	C233.841919,764.478149 235.515823,767.351074 239.247330,766.742310 
	C241.355453,766.398438 244.202927,763.753296 244.568375,761.752258 
	C244.853622,760.190247 242.049957,756.812622 240.207138,756.472473 
	C238.436493,756.145691 236.136597,758.686279 234.014435,760.768005 
z"/>
<path fill="#20D54D" opacity="1.000000" stroke="none" 
	d="
M687.898560,920.357361 
	C683.695557,915.928040 682.648560,909.164978 685.323425,905.275940 
	C687.741272,901.760742 694.022278,899.975525 698.151794,901.629944 
	C703.416077,903.738892 706.402710,909.714661 704.702515,914.736572 
	C702.728638,920.566711 696.281860,923.514709 689.972351,921.452209 
	C689.353210,921.249878 688.778076,920.913147 687.898560,920.357361 
M699.541077,910.054016 
	C698.159058,906.964172 695.736694,905.089294 692.512939,906.390930 
	C689.804016,907.484680 687.710205,910.321228 689.351990,913.205627 
	C690.382812,915.016663 693.817444,917.164368 695.240173,916.637939 
	C697.247131,915.895508 698.390259,912.817993 699.541077,910.054016 
z"/>
<path fill="#000000" opacity="1.000000" stroke="none" 
	d="
M213.374329,636.856323 
	C209.919037,634.187256 210.629196,631.356201 212.730637,628.948364 
	C214.834518,626.537598 217.539490,626.600952 220.094879,628.632935 
	C222.867996,630.838074 222.491150,633.508728 220.922684,636.074402 
	C219.029175,639.171753 216.323212,638.356750 213.374329,636.856323 
z"/>
<path fill="#000000" opacity="1.000000" stroke="none" 
	d="
M261.728638,589.654236 
	C263.491547,587.903320 265.443207,585.050720 266.545258,585.348022 
	C268.744873,585.941284 270.944061,587.974243 272.198059,589.998352 
	C272.781281,590.939697 271.616608,593.873291 270.405273,594.768616 
	C269.123169,595.716248 266.332642,596.099365 265.124847,595.311951 
	C263.471161,594.233948 262.688934,591.819092 261.728638,589.654236 
z"/>
<path fill="#000000" opacity="1.000000" stroke="none" 
	d="
M312.932007,546.117920 
	C311.506653,548.321472 310.324646,551.178772 308.515869,551.654785 
	C306.852722,552.092590 303.498413,550.437195 302.759827,548.839294 
	C302.018982,547.236572 302.965363,543.933594 304.348694,542.563782 
	C305.434692,541.488403 308.423279,541.808044 310.352722,542.317688 
	C311.428223,542.601868 312.066650,544.540466 312.932007,546.117920 
z"/>
<path fill="#000000" opacity="1.000000" stroke="none" 
	d="
M481.035339,866.980591 
	C477.015289,869.015137 475.204590,866.347778 474.694458,863.781860 
	C474.378723,862.193848 475.942505,859.533203 477.447601,858.518433 
	C478.519684,857.795654 481.589020,858.398621 482.555450,859.486328 
	C484.776398,861.986206 484.721802,864.881287 481.035339,866.980591 
z"/>
<path fill="#000000" opacity="1.000000" stroke="none" 
	d="
M149.719604,693.608032 
	C148.157242,697.040466 145.731598,698.910217 142.509460,697.607361 
	C139.801254,696.512207 137.708344,693.673889 139.353973,690.789978 
	C140.386978,688.979614 143.824615,686.834351 145.245743,687.362488 
	C147.252045,688.108032 148.391159,691.187134 149.719604,693.608032 
z"/>
<path fill="#000000" opacity="1.000000" stroke="none" 
	d="
M225.393799,527.048828 
	C220.902191,530.207397 217.955078,529.910156 215.722168,526.123657 
	C213.688095,522.674255 215.978241,520.644287 218.573975,518.968262 
	C221.880402,516.833313 223.881821,518.775330 225.056671,521.593811 
	C225.699585,523.136169 225.492065,525.033081 225.393799,527.048828 
z"/>
<path fill="#000000" opacity="1.000000" stroke="none" 
	d="
M734.998169,544.026978 
	C737.207336,548.041138 734.873413,549.800354 732.143921,551.389343 
	C728.929749,553.260498 726.574097,551.103943 725.713867,548.838257 
	C725.013977,546.994934 725.569702,543.540771 726.933655,542.292542 
	C729.488892,539.953979 732.744141,540.223022 734.998169,544.026978 
z"/>
<path fill="#000000" opacity="1.000000" stroke="none" 
	d="
M623.293823,896.699951 
	C624.723694,899.244019 626.215759,901.494324 626.709473,903.945618 
	C626.860718,904.696655 624.271301,906.852051 622.943237,906.846497 
	C621.013550,906.838562 618.697021,905.859314 617.304077,904.510742 
	C616.406189,903.641418 616.125000,900.628784 616.873169,899.877747 
	C618.451660,898.293518 620.887756,897.563843 623.293823,896.699951 
z"/>
<path fill="#000000" opacity="1.000000" stroke="none" 
	d="
M313.010529,420.160889 
	C314.838470,418.184753 316.462555,415.901306 318.565155,415.304901 
	C319.725739,414.975708 322.442169,417.181122 323.072754,418.787415 
	C323.669342,420.307068 322.959259,422.923401 321.878296,424.331451 
	C321.027374,425.439850 318.178253,426.344574 317.208252,425.742432 
	C315.422852,424.634125 314.366577,422.351227 313.010529,420.160889 
z"/>
<path fill="#000000" opacity="1.000000" stroke="none" 
	d="
M263.989990,849.857605 
	C262.088776,851.680481 260.127167,854.306946 258.312775,854.208923 
	C256.480499,854.109985 253.737885,851.519226 253.363235,849.629700 
	C253.037430,847.986450 255.056885,845.274902 256.756378,843.965088 
	C259.824524,841.600525 262.635742,843.874023 263.989990,849.857605 
z"/>
<path fill="#000000" opacity="1.000000" stroke="none" 
	d="
M234.041840,760.367432 
	C236.136597,758.686279 238.436493,756.145691 240.207138,756.472473 
	C242.049957,756.812622 244.853622,760.190247 244.568375,761.752258 
	C244.202927,763.753296 241.355453,766.398438 239.247330,766.742310 
	C235.515823,767.351074 233.841919,764.478149 234.041840,760.367432 
z"/>
<path fill="#000000" opacity="1.000000" stroke="none" 
	d="
M699.721863,910.396362 
	C698.390259,912.817993 697.247131,915.895508 695.240173,916.637939 
	C693.817444,917.164368 690.382812,915.016663 689.351990,913.205627 
	C687.710205,910.321228 689.804016,907.484680 692.512939,906.390930 
	C695.736694,905.089294 698.159058,906.964172 699.721863,910.396362 
z"/>
</svg>